<svg width="270" height="356" viewBox="0 0 270 356" fill="none" xmlns="http://www.w3.org/2000/svg">
<g filter="url(#filter0_f_114_83)">
<circle cx="178" cy="178" r="28" fill="#004F44"/>
</g>
<circle cx="178" cy="178" r="28" fill="white"/>
<path d="M180.091 186.453L188.5 178L180.091 169.548C180.015 169.448 179.919 169.366 179.808 169.306C179.698 169.247 179.576 169.212 179.451 169.204C179.326 169.196 179.2 169.215 179.083 169.26C178.966 169.305 178.86 169.374 178.772 169.463C178.684 169.553 178.616 169.66 178.573 169.777C178.53 169.895 178.513 170.021 178.523 170.146C178.533 170.271 178.569 170.392 178.63 170.502C178.691 170.611 178.774 170.707 178.875 170.781L185.166 177.125L168.427 177.125C168.195 177.125 167.973 177.217 167.809 177.381C167.645 177.545 167.552 177.768 167.552 178C167.552 178.232 167.645 178.455 167.809 178.619C167.973 178.783 168.195 178.875 168.427 178.875L185.166 178.875L178.875 185.219C178.711 185.384 178.62 185.607 178.621 185.839C178.622 186.071 178.715 186.293 178.879 186.457C179.044 186.621 179.267 186.712 179.499 186.711C179.732 186.71 179.954 186.617 180.117 186.453L180.091 186.453Z" fill="#004F44"/>
<defs>
<filter id="filter0_f_114_83" x="0" y="0" width="356" height="356" filterUnits="userSpaceOnUse" color-interpolation-filters="sRGB">
<feFlood flood-opacity="0" result="BackgroundImageFix"/>
<feBlend mode="normal" in="SourceGraphic" in2="BackgroundImageFix" result="shape"/>
<feGaussianBlur stdDeviation="75" result="effect1_foregroundBlur_114_83"/>
</filter>
</defs>
</svg>
