<svg width="76" height="19" viewBox="0 0 76 19" fill="none" xmlns="http://www.w3.org/2000/svg">
<path d="M1.248 6H2.368V7.44C2.592 6.992 2.90667 6.608 3.312 6.288C3.728 5.968 4.288 5.808 4.992 5.808C5.728 5.808 6.30933 5.98933 6.736 6.352C7.17333 6.704 7.49333 7.14133 7.696 7.664C7.92 7.14133 8.28267 6.704 8.784 6.352C9.28533 5.98933 9.92 5.808 10.688 5.808C11.616 5.808 12.368 6.08533 12.944 6.64C13.5307 7.19467 13.824 8.016 13.824 9.104V14H12.704V9.104C12.704 8.69867 12.6453 8.35733 12.528 8.08C12.4107 7.792 12.2507 7.55733 12.048 7.376C11.856 7.184 11.6267 7.04533 11.36 6.96C11.104 6.87467 10.8373 6.832 10.56 6.832C9.824 6.832 9.22667 7.10933 8.768 7.664C8.32 8.208 8.096 8.96533 8.096 9.936V14H6.976V9.104C6.976 8.69867 6.91733 8.35733 6.8 8.08C6.68267 7.792 6.528 7.55733 6.336 7.376C6.144 7.184 5.92 7.04533 5.664 6.96C5.408 6.87467 5.14133 6.832 4.864 6.832C4.128 6.832 3.52533 7.10933 3.056 7.664C2.59733 8.208 2.368 8.96533 2.368 9.936V14H1.248V6ZM20.3796 14.192C19.793 14.192 19.2436 14.0853 18.7316 13.872C18.2303 13.6587 17.793 13.3653 17.4196 12.992C17.0463 12.6187 16.753 12.176 16.5396 11.664C16.3263 11.152 16.2196 10.5973 16.2196 10C16.2196 9.40267 16.3263 8.848 16.5396 8.336C16.753 7.824 17.0463 7.38133 17.4196 7.008C17.793 6.63467 18.2303 6.34133 18.7316 6.128C19.2436 5.91467 19.793 5.808 20.3796 5.808C20.9663 5.808 21.5103 5.91467 22.0116 6.128C22.5236 6.34133 22.9663 6.63467 23.3396 7.008C23.713 7.38133 24.0063 7.824 24.2196 8.336C24.433 8.848 24.5396 9.40267 24.5396 10C24.5396 10.5973 24.433 11.152 24.2196 11.664C24.0063 12.176 23.713 12.6187 23.3396 12.992C22.9663 13.3653 22.5236 13.6587 22.0116 13.872C21.5103 14.0853 20.9663 14.192 20.3796 14.192ZM20.3796 13.168C20.817 13.168 21.217 13.088 21.5796 12.928C21.953 12.768 22.273 12.5493 22.5396 12.272C22.8063 11.984 23.0143 11.648 23.1636 11.264C23.313 10.88 23.3876 10.4587 23.3876 10C23.3876 9.54133 23.313 9.12 23.1636 8.736C23.0143 8.352 22.8063 8.02133 22.5396 7.744C22.273 7.456 21.953 7.232 21.5796 7.072C21.217 6.912 20.817 6.832 20.3796 6.832C19.9423 6.832 19.537 6.912 19.1636 7.072C18.801 7.232 18.4863 7.456 18.2196 7.744C17.953 8.02133 17.745 8.352 17.5956 8.736C17.4463 9.12 17.3716 9.54133 17.3716 10C17.3716 10.4587 17.4463 10.88 17.5956 11.264C17.745 11.648 17.953 11.984 18.2196 12.272C18.4863 12.5493 18.801 12.768 19.1636 12.928C19.537 13.088 19.9423 13.168 20.3796 13.168ZM26.998 6H28.118V7.44C28.374 6.94933 28.71 6.55467 29.126 6.256C29.542 5.95733 30.07 5.808 30.71 5.808C31.1153 5.808 31.494 5.87733 31.846 6.016C32.198 6.144 32.5233 6.33067 32.822 6.576L32.246 7.36C32.0007 7.17867 31.7393 7.05067 31.462 6.976C31.1953 6.90133 30.9233 6.864 30.646 6.864C30.2833 6.864 29.9473 6.93333 29.638 7.072C29.3287 7.21067 29.062 7.41333 28.838 7.68C28.614 7.936 28.438 8.256 28.31 8.64C28.182 9.024 28.118 9.456 28.118 9.936V14H26.998V6ZM38.1311 14.192C37.5018 14.192 36.9258 14.0853 36.4031 13.872C35.8911 13.6587 35.4485 13.3653 35.0751 12.992C34.7018 12.6187 34.4138 12.176 34.2111 11.664C34.0085 11.152 33.9071 10.5973 33.9071 10C33.9071 9.40267 34.0138 8.848 34.2271 8.336C34.4405 7.824 34.7338 7.38133 35.1071 7.008C35.4805 6.63467 35.9178 6.34133 36.4191 6.128C36.9311 5.91467 37.4805 5.808 38.0671 5.808C38.6111 5.808 39.1231 5.89867 39.6031 6.08C40.0831 6.25067 40.4991 6.512 40.8511 6.864C41.2031 7.216 41.4805 7.65333 41.6831 8.176C41.8965 8.69867 42.0031 9.30667 42.0031 10C42.0031 10.096 42.0031 10.1813 42.0031 10.256C42.0031 10.3307 41.9925 10.4107 41.9711 10.496H35.0591C35.1658 11.296 35.5071 11.9467 36.0831 12.448C36.6591 12.9493 37.4005 13.2 38.3071 13.2C38.7551 13.2 39.2245 13.136 39.7151 13.008C40.2058 12.8693 40.6698 12.672 41.1071 12.416L41.5551 13.12C41.1178 13.4293 40.6218 13.6853 40.0671 13.888C39.5125 14.0907 38.8671 14.192 38.1311 14.192ZM40.8991 9.504C40.8778 9.088 40.7871 8.71467 40.6271 8.384C40.4778 8.04267 40.2751 7.76 40.0191 7.536C39.7738 7.30133 39.4805 7.12 39.1391 6.992C38.8085 6.864 38.4511 6.8 38.0671 6.8C37.6725 6.8 37.2991 6.86933 36.9471 7.008C36.6058 7.136 36.3018 7.31733 36.0351 7.552C35.7791 7.78667 35.5658 8.06933 35.3951 8.4C35.2245 8.73067 35.1125 9.09867 35.0591 9.504H40.8991Z" fill="#004F44"/>
<path d="M75.4243 9.42427C75.6586 9.18995 75.6586 8.81005 75.4243 8.57574L71.6059 4.75736C71.3716 4.52305 70.9917 4.52305 70.7574 4.75736C70.523 4.99167 70.523 5.37157 70.7574 5.60589L74.1515 9L70.7574 12.3941C70.523 12.6284 70.523 13.0083 70.7574 13.2426C70.9917 13.477 71.3716 13.477 71.6059 13.2426L75.4243 9.42427ZM59 9.6L75 9.6L75 8.4L59 8.4L59 9.6Z" fill="#004F44"/>
</svg>
